# xmcd
#
# Track frame offsets:
#	150
#	22246
#	39562
#	59072
#	75544
#	103612
#	128760
#	155355
#	171077
#	196068
#	215302
#	235212
#	256352
#	276023
#	306429
#
# Disc length: 4374 seconds
#
# Revision: 3
# Processed by: cddbd v1.5.1PL0 Copyright (c) Steve Scherf et al.
# Submitted via: audiograbber 1.83.01
#
DISCID=cf11140f
DTITLE=Tina Turner - Romantic Ballads 1999 - 2000
DYEAR=2000
DGENRE=
TTITLE0=What love got to do with it
TTITLE1=I don't wanna lose you
TTITLE2=Let's stay together
TTITLE3=Whatever you want
TTITLE4=On silent wings
TTITLE5=In your wildest dreams
TTITLE6=Why must we wait until tonight
TTITLE7=Golden eye
TTITLE8=Paradise is here
TTITLE9=We don't need another hero
TTITLE10=Way of the world
TTITLE11=Confidential
TTITLE12=Something beautiful remains
TTITLE13=Dancing in my dreams
TTITLE14=Cosa della vita (duet with E. Ramazotti)
EXTD=
EXTT0=
EXTT1=
EXTT2=
EXTT3=
EXTT4=
EXTT5=
EXTT6=
EXTT7=
EXTT8=
EXTT9=
EXTT10=
EXTT11=
EXTT12=
EXTT13=
EXTT14=
PLAYORDER=
